<svg xmlns="http://www.w3.org/2000/svg" version="1.1" xmlns:xlink="http://www.w3.org/1999/xlink"
  xmlns:svgjs="http://svgjs.dev/svgjs" width="1440" height="560" preserveAspectRatio="none" viewBox="0 0 1440 560">
  <g mask="url(&quot;#SvgjsMask1061&quot;)" fill="none">
    <rect width="1440" height="560" x="0" y="0" fill="url(&quot;#SvgjsLinearGradient1062&quot;)"></rect>
    <path d="M1440 0L878.38 0L1440 1.57z" fill="rgba(255, 255, 255, .1)"></path>
    <path d="M878.38 0L1440 1.57L1440 165.72L675.87 0z" fill="rgba(255, 255, 255, .075)"></path>
    <path d="M675.87 0L1440 165.72L1440 280.67L359.01 0z" fill="rgba(255, 255, 255, .05)"></path>
    <path d="M359.01 0L1440 280.67L1440 433.67L351.43 0z" fill="rgba(255, 255, 255, .025)"></path>
    <path d="M0 560L480.48 560L0 515.28z" fill="rgba(0, 0, 0, .1)"></path>
    <path d="M0 515.28L480.48 560L563.2 560L0 333.43999999999994z" fill="rgba(0, 0, 0, .075)"></path>
    <path d="M0 333.44L563.2 560L1077.63 560L0 130.24z" fill="rgba(0, 0, 0, .05)"></path>
    <path d="M0 130.24L1077.63 560L1106.25 560L0 73.75z" fill="rgba(0, 0, 0, .025)"></path>
  </g>
  <defs>
    <mask id="SvgjsMask1061">
      <rect width="1440" height="560" fill="#ffffff"></rect>
    </mask>
    <linearGradient x1="15.28%" y1="-39.29%" x2="84.72%" y2="139.29%" gradientUnits="userSpaceOnUse"
      id="SvgjsLinearGradient1062">
      <stop stop-color="#0e2a47" offset="0"></stop>
      <stop stop-color="rgba(255, 251, 221, 1)" offset="1"></stop>
    </linearGradient>
  </defs>
</svg>